<svg width="48" height="48" viewBox="0 0 48 48" fill="none" xmlns="http://www.w3.org/2000/svg">
<rect width="48" height="48" rx="24" fill="#437EF7"/>
<path d="M18.2769 16.3913C18.5268 15.8691 18.6667 15.2843 18.6667 14.6667C18.6667 12.4576 16.8759 10.6667 14.6667 10.6667C12.4576 10.6667 10.6667 12.4576 10.6667 14.6667C10.6667 16.8759 12.4576 18.6667 14.6667 18.6667C15.2843 18.6667 15.8691 18.5268 16.3913 18.2769L18.4379 20.3236C17.7399 21.3775 17.3334 22.6413 17.3334 24.0001C17.3334 25.3589 17.7399 26.6227 18.4379 27.6766L16.6908 29.4237C16.4705 29.3648 16.239 29.3334 16.0001 29.3334C14.5273 29.3334 13.3334 30.5273 13.3334 32.0001C13.3334 33.4728 14.5273 34.6667 16.0001 34.6667C17.4728 34.6667 18.6667 33.4728 18.6667 32.0001C18.6667 31.7612 18.6353 31.5297 18.5764 31.3094L20.3236 29.5622C21.3775 30.2602 22.6413 30.6667 24.0001 30.6667C25.3589 30.6667 26.6227 30.2602 27.6766 29.5622L29.7232 31.6089C29.4734 32.131 29.3334 32.7159 29.3334 33.3334C29.3334 35.5426 31.1243 37.3334 33.3334 37.3334C35.5426 37.3334 37.3334 35.5426 37.3334 33.3334C37.3334 31.1243 35.5426 29.3334 33.3334 29.3334C32.7159 29.3334 32.131 29.4734 31.6089 29.7232L29.5622 27.6766C30.2602 26.6227 30.6667 25.3589 30.6667 24.0001C30.6667 22.6413 30.2602 21.3775 29.5622 20.3236L31.3094 18.5764C31.5297 18.6353 31.7612 18.6667 32.0001 18.6667C33.4728 18.6667 34.6667 17.4728 34.6667 16.0001C34.6667 14.5273 33.4728 13.3334 32.0001 13.3334C30.5273 13.3334 29.3334 14.5273 29.3334 16.0001C29.3334 16.239 29.3648 16.4705 29.4237 16.6908L27.6766 18.4379C26.6227 17.7399 25.3589 17.3334 24.0001 17.3334C22.6413 17.3334 21.3775 17.7399 20.3236 18.4379L18.2769 16.3913Z" fill="white"/>
</svg>
