<svg width="48" height="48" viewBox="0 0 48 48" fill="none" xmlns="http://www.w3.org/2000/svg">
<rect width="48" height="48" rx="24" fill="#437EF7"/>
<path d="M25.3333 19.8319C27.6336 19.2398 29.3333 17.1517 29.3333 14.6666C29.3333 11.7211 26.9455 9.33325 24 9.33325C21.0544 9.33325 18.6666 11.7211 18.6666 14.6666C18.6666 17.1517 20.3663 19.2398 22.6666 19.8319V22.6666H18.6666C16.4575 22.6666 14.6666 24.4574 14.6666 26.6666V28.1679C12.3663 28.76 10.6666 30.8481 10.6666 33.3333C10.6666 36.2788 13.0544 38.6666 16 38.6666C18.9455 38.6666 21.3333 36.2788 21.3333 33.3333C21.3333 30.8481 19.6336 28.76 17.3333 28.1679V26.6666C17.3333 25.9302 17.9302 25.3333 18.6666 25.3333H29.3333C30.0697 25.3333 30.6666 25.9302 30.6666 26.6666V28.1679C28.3663 28.76 26.6666 30.8481 26.6666 33.3333C26.6666 36.2788 29.0544 38.6666 32 38.6666C34.9455 38.6666 37.3333 36.2788 37.3333 33.3333C37.3333 30.8481 35.6336 28.76 33.3333 28.1679V26.6666C33.3333 24.4574 31.5424 22.6666 29.3333 22.6666H25.3333V19.8319Z" fill="white"/>
</svg>
